<?xml version="1.0" encoding="utf-8"?>
<!-- Generator: Adobe Illustrator 21.0.2, SVG Export Plug-In . SVG Version: 6.00 Build 0)  -->
<svg version="1.1" id="Layer_1" xmlns="http://www.w3.org/2000/svg" xmlns:xlink="http://www.w3.org/1999/xlink" x="0px" y="0px"
	 viewBox="0 0 1440 179" style="enable-background:new 0 0 1440 179;" xml:space="preserve">
<style type="text/css">
	.st0{fill:#5E3F33;}
</style>
<g>
	<path class="st0" d="M1440,179v-50.7c-2.2,0-4.7-0.1-7.3-0.1c-46.1-0.6-91,0-91,0l-98.3-0.3l-91,1.3h-128.6l-102,4.3l-111.5,4.2
		c0,0-38.8,0.6-99.5,0c-60.7-0.6-33.6,0.6-116.9-1.8c-83.3-2.4,6.7,0-111.1-3c-117.8-3-185.7-5-185.7-5l-55.8-3.3h-79.7H82l-82,1.8
		V179H1440z"/>
	<path class="st0" d="M1318.1,29.9c0,0,1.8,0.3,2.2,0.5c0.4,0.2,0.8,0.3,0.7,0.4c-0.2,0-0.8-0.3-0.6-0.1c0.2,0.2,1.2,0.7,1.2,0.9
		c0.1,0.2,0.4,0.5,0,0.2c-0.4-0.3-0.5-0.3-0.3,0.1s0.4,0.3,0.4,0.6c0,0.3,0.4,0.5,0.3,0.8c-0.1,0.3-0.3,0-0.3,0s0.2,0.6,0.4,0.8
		c0.2,0.3,0.8,1.3,0.9,1.8c0.1,0.5,0,2.9,0,3.6c0,0.7-0.1,1.8-0.1,1.8s1.7-0.1,2.5,0.6c0.8,0.7,1.3,0.9,1.3,1.3
		c0.1,0.4,0.2,0.6,0.3,0.6c0.1,0,2.1-0.3,3,0.2c0.9,0.6,3.1,4.6,3.5,5.3c0.3,0.7,1.2,2.3,1.2,3c0.1,0.7,0.1,1.5,0.1,1.5
		s3.3,1.6,4.1,1.9c0.8,0.3,1.5,0.2,2.2,1.4c0.7,1.2,1.1,2.1,1.1,3.4c0,1.3-0.2,2.7-0.1,2.9c0.1,0.2,1.4,2.1,1.6,2.4
		c0.2,0.3,0.4,0.9,0.5,1.4c0.1,0.6,0.4,0.8,0.4,1.2c0,0.4-0.4,2.3-0.5,2.3c-0.1,0-0.4-0.1-0.4-0.1s-0.1,0.4-0.3,0.3
		c-0.3,0-0.4-0.2-0.4-0.2s0.1,0.4-0.2,0.4c-0.3,0-0.6-0.4-0.6-0.4s-0.7,0.1-0.8-0.7c-0.1-0.7,0-2.3,0-2.5c-0.1-0.2-0.5-0.2-0.9-0.5
		c-0.4-0.3-0.7-0.7-1-0.6c-0.3,0.1-1.2,1.5-1.5,1.5s-0.6-0.3-0.3-0.9c0.2-0.5,0.9-2,0.8-2c-0.1,0-0.6,0.7-0.6,0.4
		c0-0.3,0.3-0.5,0.5-0.8c0.2-0.3,0.3-0.7,0.3-0.7c0-0.1-1.2-0.7-1.4-1.4c-0.2-0.7-0.5-0.8-0.5-0.8s-0.7,0.8-1.5,0.5
		c-0.7-0.3-1.9-1.5-2.2-2.1c-0.3-0.5-0.8-1.1-0.8-1.1s0.5,1.7,0.8,2.2c0.3,0.5,0.6,2.3,0.8,3.5c0.2,1.2,0.6,3.3,1.1,4.2
		c0.5,0.9,0.9,4.5,1.1,6.1c0.2,1.7,0.5,5.8,0.3,5.8c-0.2,0-1.2-0.1-1.4,0.2c-0.2,0.3-0.8,0.4-1.1,0.4s-0.6-0.2-0.6-0.2l-0.1-0.3
		l-0.3,0.1c0,0,0.7,6.2,1,7.3c0.2,1,0.7,8.3,0.8,9.2c0.1,1,1,2.6,1,3.5c0,0.9,0,3.2,0.3,4.1c0.3,0.8,0.7,3.3,0.7,4.3
		c0,1,0,1.1,0.4,1.7c0.4,0.5,0.7,1,0.8,2c0.1,1-0.1,3.3,0.4,4.1c0.5,0.8,3.3,4.4,3.4,5.7c0.1,1.3,0.1,2.7,0.1,2.7s1,0.9,1.5,2.1
		c0.5,1.2,1.4,2.3,2.2,3.2c0.8,0.9,2.3,2,2.5,3c0.1,1.1-0.3,2.4-2.4,2.9c-2.1,0.5-3.2,0.4-3.8-0.4c-0.6-0.8-1.8-3.3-2.2-3.4
		c-0.4-0.1-0.8-0.1-1-0.4c-0.2-0.3-0.5-1.3-0.8-2.2c-0.2-0.9-0.4-2.3-0.4-2.3s-1.3,1-1.7,0.6c-0.3-0.4-1.1-3.3-1.5-3.8
		c-0.4-0.6-2.3-4-2.9-5.3c-0.6-1.3-0.2-1.5-0.9-2.6c-0.7-1.1-2.4-3.9-2.4-5.8c0-1.9-0.4-5.5-0.6-6.7c-0.2-1.2-0.4-2-0.2-2.5
		c0.1-0.5,0.2-0.7,0.2-0.7s-1-4.1-1.2-5.6c-0.2-1.5-1.4-7.4-1.4-7.4s-1.3,6.3-1.7,7.8c-0.3,1.5-0.7,3.9-0.8,4.1
		c-0.2,0.2-0.2,0.2-0.2,0.2s0,1.8-0.1,2.7c0,0.9-1,9.4-1.6,11.3c-0.6,1.9-1.1,2.1-1.2,2.4c-0.1,0.3-0.7,2.4-1.3,3.7
		c-0.6,1.3-1.3,2.5-1.6,3.2c-0.2,0.7-1.2,2.4-1.4,3.6c-0.1,1.1-0.5,2.2-1,2c-0.6-0.2-1.2-0.4-1.2-0.4s-0.1,1.5-0.2,2.1
		c-0.1,0.6-0.7,1.8-0.8,2.8c-0.2,1-0.4,3.2-1.2,3.7c-0.8,0.5-5-0.1-5.6-0.8c-0.6-0.7-0.5-2.2,0.1-3.3c0.7-1.1,1.4-2.1,1.8-3.1
		c0.4-1,1.1-3.4,1.5-3.9c0.3-0.5,0.4-0.6,0.4-0.6s-0.4-0.5,0.3-1.5c0.7-1,2.2-2.8,2.3-3.1c0.1-0.3-0.4-2.1-0.3-3
		c0.1-0.9,0.4-1.2,0.6-2.2c0.1-0.9,0.8-3.4,1-3.8c0.2-0.4,0.2-1.5,0.1-2.3c-0.1-0.7,1.3-6.2,1.3-7.1c0-1,0.7-5.6,1-7.2
		c0.3-1.6,0.4-4.9,0.2-6.3c-0.2-1.3-0.7-1.6-0.8-2.5c-0.1-1-0.1-2.2-0.1-2.2s-2.1,0-2.2-0.8s0.5-2.4,0.5-3c0-0.6,0.2-6.9,0.2-8.1
		c0-1.2-0.1-3.3,0.6-4.3c0.7-1,1.3-1.5,1.3-2.3c0-0.8-1.4-1.4-1.5-2c-0.1-0.6-0.9-2.1-0.9-2.1s-0.4,2.1-1.1,3
		c-0.6,1-0.8,1.6-0.8,1.8c0,0.2,0.5,1.4,0,2.2c-0.5,0.8-1.3,1.2-1.9,1.5c-0.6,0.2-1-0.1-1.4,0.4c-0.4,0.5-0.1,0.6-1,1.1
		c-0.9,0.5-1.5,0.5-1.5,0.5s-0.4,0.2-0.5,0.2s-1.4,0.3-1.5,0.5c-0.1,0.3-0.6,0.7-0.6,1.2c0,0.5,0.1,0.9-0.4,1.1
		c-0.5,0.2-0.8-0.1-0.8-0.5c0-0.4-0.1-1.4-0.2-1.4c-0.1,0-0.6,0.1-0.6,0.3c0,0.1,0,0.8-0.2,0.9c-0.2,0.1-0.3,0-0.3,0
		s0.1,0.6-0.2,0.8c-0.3,0.2-0.9,0.5-0.9,0.1c0-0.4-0.2-2.2,0-2.5c0.2-0.3,0.1-0.5,0.3-0.7c0.2-0.2,0.3-0.4,0.3-0.4s0-0.5,0.3-0.7
		c0.2-0.3,1.5-1,1.9-1.3c0.3-0.3,0.5-0.2,0.5-0.5c0-0.3-0.4-1,0-1.1c0.4-0.1,0.6,0.9,0.5,0.2c0-0.7-0.5-0.9,0-2s1.2-1.9,1.4-2.5
		s0.9-1.8,1.5-2.2c0.6-0.4,1.3-1.7,1.3-1.7s-0.4-4-0.2-4.6c0.3-0.6,1.2-1.9,1.3-2.7c0.1-0.9,0.6-3.8,1.2-4.2c0.7-0.5,5.1-3.1,5.4-4
		c0.3-0.9,0.3-1,0.4-1.6c0-0.6,0-1.3,0.2-1.4c0.2-0.1,0.5,0,0.5,0s-0.5-1.1-0.6-1.1s-1.3,0-1.4-0.2c-0.1-0.2-0.9-1-1-1.5
		c0-0.5-0.5-0.7-0.6-0.6c-0.1,0-0.6,0-0.5-0.6c0-0.6-0.1-0.9-0.1-1.3c0-0.4-0.2-0.1,0-1c0.3-0.8,0.8-1.9,0.9-2.6
		c0.1-0.8,0.3-1.4,0.8-2.1c0.5-0.7,1.9-1.3,2.8-1.3c1,0,1.5,0.2,1.7,0.2C1317.7,29.9,1318.1,29.9,1318.1,29.9z"/>
	<path class="st0" d="M354.1,25.7c0,0-0.1-0.4,0.1-0.8c0.2-0.5,0.2-0.7,0.4-0.9c0.1-0.3,0.1-0.9,0.1-0.9s-1.3-0.1-1.3-1.3
		c0-1.3,0.1-2.7,0.6-3.1c0.6-0.4,0.6-0.5,0.6-0.5s0.3-3.9,1.3-5.5s2.1-3.1,5.3-3.5c0,0-0.2-0.6,0-1c0.2-0.4,4.9-7.6,5.2-7.5
		c0.3,0,0.8,0.1,1,0c0.2-0.1,0.9,0.8,1.4,1.5s1.4,1.5,1.3,1.8C370.1,4,370,4.3,370,4.3l0.2,0.8c0,0,1.1,1.6,2.8,2.7
		c1.7,1.1,3.7,2.7,4.7,4.3c1.1,1.6,3.1,4.3,2.9,5.1c-0.1,0.8-0.7,1.7-1.6,1.7c-0.9,0-1.5-0.5-1.7-1.3c-0.2-0.8-1.3-2.6-2.3-3.8
		c-1-1.2-3.7-4-4.5-4.6c-0.7-0.6-1.5-1.2-1.5-1.2s-1.1,4.7-1.3,4.8c-0.2,0.1,0,3.4,0,4.4s1,2.4,1,3.6c0,1.2,0.2,2-1.2,2.2
		c0,0-0.1,1.6-0.8,3.1c-0.7,1.6-0.8,4.4-0.5,4.8c0.3,0.3,0.8,0,1.4,1.4c0.6,1.5,1.6,2.9,2.9,4.1c1.3,1.2,2.5,2.5,2.2,3
		c-0.4,0.6-1,2.1-1,2.1s2.9,1.1,3.3,4.2c0.4,3.1,0.4,6.8,0.4,7.1s1,2.1,1,3.2s-0.2,2.5-0.2,2.5s1,4.5,1.5,6.8c0.5,2.2,1,2.3,1,5.1
		c-0.1,2.7-0.9,17.6-0.9,19c0,1.4-0.2,3.1-0.5,3.7c-0.3,0.5,0.2,5-0.1,6.5s-4.7,6.6-5.7,6.6c-1-0.1-1.1-1.1-0.8-2
		c0.4-0.8,0.9-3.6,0.5-4c-0.4-0.4-1.6-0.4-1.7,0.6c-0.2,1,0.1,2.3-0.5,2.5c-0.5,0.2-1.4-1.3-0.8-3.2c0.6-1.9,1.8-3.7,3.4-5.2
		c0,0,0.9-5.3,0.9-7.6c0.1-2.3-0.6-8.4-0.5-11c0.1-2.6,0.4-8.8,0-10.5c-0.4-1.7-1.6-6-1.7-8.3c-0.2-2.3-0.4-4-0.8-4
		c-0.4,0.1-0.5,1.4-0.8,2.3c-0.3,0.9-1.5,4.1-1.7,6.2c-0.2,2.1,0.6,9.6,0,9.6s-2.2-3.6-2.1-5.3c0,0-2.6,1.6-2,4
		c0.6,2.4,1.6,7,1.1,8.4c-0.5,1.4-1.1,1.1-1.1,1.1s0.2,4.2,0.6,5.4c0.4,1.2,1.1,1.8,0.9,2.5s-0.2,2-0.2,2.9c0,0.9-0.7,10.2-0.7,11.5
		s0,2.5,0.3,3.8c0.2,1.3-0.2,2.1-0.2,2.1s2.8,6.4,3.2,11s1,6.5,1.6,6.8c0.5,0.4,2.7,4.9,2.6,6.8c0,1.9-0.4,2-0.2,2.9
		c0.3,1,0.4,1.6,0.3,2.2c-0.2,0.5-1.4,2.4-1.4,3.3s0.7,3.1,0.2,4c-0.5,0.8-5.6,5.1-7.2,5.2c-1.5,0.1-3.2-0.9-5-1.1
		c-1.8-0.1-2.1-1.6-0.5-2.9c1.5-1.2,3.3-2.2,3.4-3.5c0.1-1.3,0.5-3.4,0.8-3.6c0.3-0.2-0.5-2.5-0.9-3.5s0.4-1.6,0-3
		c-0.3-1.4-2.9-7.2-3.6-9.9c-0.7-2.8-0.8-8.4-1.4-9.4c-0.6-0.9-1.6-1.8-1.7-2.7c0-0.9-1.3-5-1.8-8.3c-0.5-3.3-3.4-9.7-3.9-10.3
		c-0.5-0.7-1.4-0.4-1.7-0.5c-0.3-0.1-1.4,2.7-1.9,4.5s-2.9,8.7-3.4,11.1c-0.5,2.4-1.1,3.1-1.1,3.1s-0.7,3.9-0.7,4.6
		c0,0.7,0.8,4.5,0.4,5.4c-0.4,0.9-1.8-1.6-2-1.4s0.2,4.7-0.2,6.3c-0.4,1.6-1.6,3.4-2.1,7.4c-0.5,4-0.1,6.3,0,7.4
		c0.1,1.1,0,2.2-0.2,2.5c-0.2,0.4-0.6,0.7-0.6,0.7s0.5,2.4,0,3.5c-0.5,1.1-1.6,0.9-1.6,0.9s0.4,1.6,0.2,2.2c-0.1,0.6-2,2.1-3.4,2.2
		c-1.4,0-6.6-1.1-6.1-2.6c0.4-1.5,3.2-2.3,3.5-4c0.4-1.6,1.8-2.5,1.8-3.7c0-1.1,0.7-3.2,0.8-4.5c0.1-1.3,0-9.2-0.4-11
		c-0.4-1.9-0.8-3.1-0.4-5c0.4-1.9,0.6-5.6,0.5-5.3c-0.1,0.3-1.2,1.1-1,0.3s0.7-1.6,0.4-1.6c-0.3,0-1.3,1.7-2.4,2.6
		c-1.1,0.9-2.2,1.2-1.8,0.4c0.4-0.7,3-3.8,2.9-5c0-1.3-1.1-0.7-0.2-2.9c0.9-2.1,1.7-4.8,2.2-10.2c0.5-5.4,0.8-10.8,1.7-13.6
		s1.1-3.6,1.1-4.1s-0.5-1,0.1-1.6c0.7-0.5,1.2-2.5,1.5-3.9c0.3-1.4,0.9-4.6,0.9-4.6s-3.1-0.3-2.9-1.3c0.1-0.9,0.6-4.3,1.9-5.9
		c1.3-1.6,2.4-3.1,2.4-3.1l-0.7-1c0,0-2.2,1.6-2.3,0.9c-0.1-0.8-0.5-1.4-0.5-1.4s-2.1,1.1-1.9,0.1c0.2-0.9,1.1-2.9,3.5-4
		c0,0,3-8.6,3.8-11.8c0.8-3.2,2.8-8.3,3.7-8.5c0,0-4.4-0.3-5.7,0.1c-1.3,0.4-2.1,1.1-3,0.5s-1.4-0.5-1.4-1.1
		c-0.1-0.6-0.9-0.3-1.3-0.9c-0.3-0.6-0.9-1.2-0.7-1.9c0.2-0.7,0.7-1.5,0.7-2c0-0.5-0.1-1.3,0.1-1.6c0.2-0.4,0.7-1.3,0.4-1.8
		c-0.4-0.5-0.9-1.3-0.9-1.7c0-0.4-0.5-1.7,0.1-1.6c0.7,0.1,0.9,0.7,0.9,0.7s0.2-1,0.8-1.1s1.1-0.1,1.4,0c0.3,0.1,0.7-0.1,0.7-0.4
		c-0.1-0.4-1.4-1.5-1.4-1.9c0-0.4,0.7-1.2,1.4-1c0.8,0.2,1.1,0.7,1.4,1.5c0.3,0.9,0.9,0.7,0.9,0.2s0.3-1.9,0.5-2.3s0.5-1.1,0.9-0.7
		s0.6,0.7,0.5,1.4c-0.1,0.7-0.1,1.6,0,2.2s0.8,2,0.8,2.7c0,0.8,0.7,2.4,0.9,2.5c0.2,0.1,6.5,0.1,6.6-0.2c0-0.3,0.4-1.6,1-1.3
		c0.7,0.3,2.1,1.2,2.5,0.9c0.4-0.2,0.8-1.1,1.6-1.1c0.8,0,1.4-0.3,1.8-0.4S354.1,25.7,354.1,25.7z"/>
</g>
</svg>
