<?xml version="1.0" encoding="utf-8"?>
<!-- Generator: Adobe Illustrator 21.0.2, SVG Export Plug-In . SVG Version: 6.00 Build 0)  -->
<svg version="1.1" id="Layer_1" xmlns="http://www.w3.org/2000/svg" xmlns:xlink="http://www.w3.org/1999/xlink" x="0px" y="0px"
	 viewBox="0 0 1440 91.5" style="enable-background:new 0 0 1440 91.5;" xml:space="preserve">
<style type="text/css">
	.st0{fill:#82635F;}
</style>
<g>
	<path class="st0" d="M1440,91.5V59.9c-2.2,0-4.7,0-7.3-0.1c-46.1-0.4-91,0-91,0l-98.3-0.2l-91,0.8h-128.6l-102,2.7l-111.5,2.6
		c0,0-38.8,0.4-99.5,0c-60.7-0.4-33.6,0.4-116.9-1.1c-83.3-1.5,6.7,0-111.1-1.9c-117.8-1.9-185.7-3.1-185.7-3.1l-55.8-2.1h-79.7H82
		L0,58.7v32.8H1440z"/>
	<path class="st0" d="M248,8c-0.1-0.7-0.7-1-0.3-2.1s0.8-1.6,0.9-2.3c0.1-0.6-0.1-1.3,0.6-1.9s2.3-1.6,2.9-1.3
		c0.5,0.2,0.7,0.2,1.2-0.2c0.5-0.4,1.8,0.1,2.5,1.1c0.7,1,1.1,2,1,2.7c-0.1,0.8-0.4,1.3-0.4,1.7s0.1,1.9-0.2,2.7
		c-0.3,0.9-1.3,1.3-1.1,1.5c0.1,0.2,0.8,0.8,1.7,0.7c0.9,0,1.3,0.2,1.3,0.8c0,0.5,0.8,0.7,1.1,0.7c0.3,0,1.5,1.8,2.2,2.2
		c0.7,0.4,2.3,1.2,2.6,1.7c0.3,0.5,0.6,0.8,0.6,0.8s1.5-0.6,2-0.9c0.5-0.3,1.4-0.7,1.6-1.2s0.5-1,0.9-1c0.4,0.1,0.8,0.4,1,0.3
		c0.2-0.1,0.9-1.4,1.3-1.2s0.3,0.7,0.1,0.9c-0.1,0.2-0.4,0.6-0.1,0.7s2.3,0,2.3,0.2c0,0.3-0.4,0.4-0.3,0.6c0.1,0.2,0.7,0.3,0.5,0.7
		c-0.2,0.4-1.7,0.4-1.6,0.6c0.1,0.2,1.1,1,1,1.3c-0.1,0.3-0.3,0.4-0.6,0.2s-0.7-0.6-1.2-0.4c-0.4,0.2-0.7,0.2-0.7,0.3
		c0,0.2-0.4,0.8-1,1.2c-0.6,0.4-3,1.5-3.2,1.8s-1.1,1.1-2.1,1.2s-2.4,0-3.4-0.9c-1-0.9-3-2.6-3-2.6s-0.6,1.6-0.9,2.1s0,1.8-0.1,2.4
		c-0.2,0.7-0.8,2.5-0.7,2.8s1.9,1.5,1.8,2c-0.1,0.5-0.8,1.9-1.2,2.1c0,0,0.8,2.4,1.2,3.1c0.4,0.7,0.6,1.9,0.4,2.2s-0.2,3.4,0,4.2
		c0.2,0.7,0.9,3.1,1,4.2c0.1,1-0.1,2.6-0.1,3.3s-0.1,3.7-0.1,4.3c0,0.6-0.5,6.2-0.5,7.5s-0.4,2-0.2,2.7c0.2,0.7,0.9,1.2,0.6,1.5
		c-0.2,0.3-0.5,0.1-0.4,0.6c0.1,0.5,0.2,0.4,0.1,0.8c-0.1,0.3-0.5,0.5-0.5,0.5s1.7,2,1.7,2.6s-1,1.3-2.4,1.1
		c-1.5-0.2-2.7-0.8-3.1-1.5s-0.6-1.3-1-1.6c-0.3-0.3-0.8-0.3-0.5-1c0.3-0.6,0-0.7,0.6-1.4c0.5-0.7,0.7-1.1,0.7-1.6s-0.6-1.8-0.5-2.6
		c0.1-0.7-0.1-3.1-0.1-4.9c0-1.9,0-5.4-0.4-6.5c-0.4-1.2-1-2.3-1.2-3.3c-0.2-1-0.4-2.2-0.6-3c-0.2-0.8-0.7-1-0.7-1s-1.1,2-1.5,3
		c-0.4,1-1.3,2.9-1.3,3.5s0.1,1-0.1,1.4c-0.2,0.4-1.1,2.6-1.3,3.7c-0.2,1.1-1.5,4.5-2.3,5.8c-0.8,1.3-1.3,3.8-1.5,4.3
		s-0.6,0.4-0.6,0.4s0.2,0.3,0,0.9c-0.2,0.6-0.9,0.6-1.1,0.8c-0.2,0.2-0.7,0.4-1.1,0.8c-0.4,0.4-1.5,0.9-3,0.7
		c-1.5-0.2-3.1-0.2-3-0.7c0.1-0.5,0.6-1.3,1.7-1.9c1.1-0.6,1.6-1.1,1.8-1.5c0.1-0.4,0.3-0.9,0.7-1.1c0.4-0.2,0.4-0.2,0.4-0.2
		s-0.2-1.1,0.4-2.2s0.8-2.4,1-4c0.2-1.6,1.3-3.5,1.5-4.7s0.5-3.4,0.4-4s0.5-2,0.5-3c0-1-0.2-5-0.5-5.6c-0.2-0.6-0.7-1-0.5-1.5
		s1.5-1.7,1.7-2.2c0.2-0.4,0.4-1.3,0.2-1.4c-0.1-0.1-1.1-0.1-1.1-0.4c0-0.3-0.5-0.6-0.4-1.2c0.1-0.6,0.6-0.2,0.3-1.4
		c-0.3-1.2-0.4-2.4,0.1-3.1c0.5-0.7,0.8-0.8,0.8-1.3c0-0.5-0.2-1.4-0.2-2.6c0-1.2-0.2-1.7-0.2-2.4c0-0.7-0.3-1.2-0.3-1.1
		c0,0.1-0.6,1.5-0.7,2c-0.1,0.4-0.3,1-0.5,1.3c-0.3,0.3-0.9,0.7-1,0.9c0,0.2-0.3,1.5-0.8,2.2c-0.5,0.7-2.6,2.1-2.6,2.3
		c0,0.2-0.2,0.9-0.1,1.2c0,0.2,0.6,1.1,1.1,1.7c0.5,0.6,1.2,1.5,0.8,1.7c-0.4,0.2-1.1-0.7-1.4-0.8c-0.3-0.2-0.5-0.1-0.8-0.4
		c-0.3-0.3-0.6-0.7-0.6-0.7s-0.2,1.1-0.1,1.7c0.1,0.7,0,1.9-0.3,1.8c-0.3-0.1-0.5-0.9-0.7-1.5c-0.1-0.6-0.2-1.6-0.6-1.3
		c-0.4,0.3-1,1.2-0.9,1.7s0.5,1.5,0.2,1.7c-0.3,0.2-1.3-0.4-1.5-1.5s-0.1-2.1,0.3-2.7c0.4-0.6,0.6-1.1,0.6-1.2s0-0.3,0-0.3
		s-0.4-0.3-0.3-1s1.5-3.2,1.9-4.4s1.4-2.1,1.8-2.7s0.5-1.2,0.9-1.4c0.5-0.2,0.5-0.3,0.5-0.4c0-0.1,0.4-2.4,0.9-3.3
		c0.5-0.9,1.6-2,2-2c0.4,0,0.4,0,0.4,0l-0.2-0.5c0,0,1.4-1.3,2.8-1.8c1.4-0.5,3.4-0.7,3.7-0.9s0.1-0.5,0.4-0.7S248,8,248,8z"/>
</g>
</svg>
