<?xml version="1.0" encoding="utf-8"?>
<!-- Generator: Adobe Illustrator 21.0.2, SVG Export Plug-In . SVG Version: 6.00 Build 0)  -->
<svg version="1.1" id="Layer_1" xmlns="http://www.w3.org/2000/svg" xmlns:xlink="http://www.w3.org/1999/xlink" x="0px" y="0px"
	 viewBox="0 0 1440 288" style="enable-background:new 0 0 1440 288;" xml:space="preserve">
<style type="text/css">
	.st0{fill:#2F221C;}
</style>
<g>
	<g>
		<g>
			<g>
				<g>
					<path class="st0" d="M1185.7,57c-3.2,1-5.7,4.6-7.7,10.7l-4.5,14.4l-5,8.9l-6.9,12.9c-1.1,0.8-2.1,1.8-3,3.1
						c-0.1,0.4-0.7,0.8-1.8,1.2l0.1,1.4l-0.3,0.9l0.8,0.6l-1.6,3.2l-1.8,7.3l-0.5,2.4l2.7,7.1l3.4,1.7l0.5-0.7
						c0.6,0.2,1.1-0.1,1.3-0.8v-0.6l-2.3-4l-0.1-3.1c0.1-1.1,0.7-1.9,1.7-2.6l1.1,1l0.5,2.4l1,2.4l0.8-0.1l0.4-2.6l-0.8-2.7l-2-4.8
						l0.4-2.7l1.8,1.2l0-3.2l0.2,1l0.8-2.3l1.5-1.6l0.8-1.9c-0.1,0.3,0,0.6,0.2,1c0.9-1,1.6-0.1,2.4,2.7c0.4-1.3,0.5-3.1,0.5-5.3
						l-0.9,1.7c0,0,0,0,0.1,0.1c0,0.1,0.1,0.3,0.2,0.6c0.1,0.3,0.1,0.5,0.1,0.6c0,0.1-0.1,0-0.2-0.2c-0.1-0.2-0.2-0.4-0.2-0.5
						c0-0.1,0-0.2,0-0.3c0-0.1,0-0.2,0-0.3c0-0.1,0.1-0.1,0.1-0.1l0.9-1.7c1.7-3.5,3.1-6.3,4.2-8.3l4.4-6.2l6-10.6l1.1,16.3
						c-1,1.9-2.1,2.8-3.4,2.6l0.9,1.1l1.5,0.7l0-0.1c-0.6-1-0.5-1.5,0.3-1.6l-0.3,1.6l0,0.1l-0.1,0.6c0.1,0.5-0.5,0.8-1.7,0.8
						l1.9,0.3l-3.8,9.7l-3.3,34.1l-2.1,11.3l0.6,8l1.2,26.2l-1.3,9.4c-0.4,0.2-0.8,0.3-1.1,0l0.4,1.2l-0.9,1l1.3,0.4l-2.5,1.2
						l1.8-0.4l-2.9,1.8l-3.8,3.4l-6.7,4l-0.7,1.4c-0.6,3.2,1.7,4.8,6.9,4.9l10.8-5.5l7.9-1.2c0.5-0.3,0.7-0.9,0.7-1.7
						c1-1.2,0.6-3.3-1-6.1l0.6,0.6c0.8-0.2,1.3-0.7,1.6-1.6l-1-8.8l2.3-11.8l0.8-13.5l-1.4-4.4l0.5-6.9l7.6-32.2l4.7,4.3l0.4,1.2
						l-0.6,3.6c0.3-0.9,0.7-1.3,1.2-1.1c0.1-0.8,0.2-0.4,0.1,1.1l0.4-1.4l1.1,16.2l1.8,6.8l-0.3,1.9l0,0.5c0.1,0,0.1,0,0.2,0.1
						c0,0.1,0,0.2-0.1,0.2c0,0.1,0,0.2,0,0.3c0,0.1,0,0.1-0.1,0.1c-0.1,0-0.2,0-0.2-0.1c-0.1-0.1-0.1-0.2-0.1-0.3
						c0-0.1,0-0.2,0.1-0.2c0.1-0.1,0.2-0.1,0.2-0.1l0-0.5l-1.3,0.1l1.2,2.1l0.2,0.5c0.1,0,0.1-0.1,0.1-0.1c0.1,0,0.1,0,0.1,0.1
						c0,0.1,0,0.1-0.1,0.2c-0.1,0.1-0.1,0.1,0,0.2c0.1,0,0.1,0.1,0,0.1c-0.1,0-0.1,0-0.1-0.1c0-0.1-0.1-0.1-0.1-0.2
						c0-0.1,0-0.1,0.1-0.2l-0.2-0.5l-0.6,0.6c0.3,0.6,0.7,1,1.2,1.1c-0.1,3.3-0.5,5.8-1.1,7.5l0.7,2.9l-1,1.5l0.6,0.1l0.6,2
						c0.2-2,0.1-4.1-0.2-6.2c0.3-0.4,0.4-0.8,0.3-1.3l1.2-0.2l-0.6-0.6c-0.1,0-0.1-0.1-0.1-0.1c0-0.1,0-0.2,0-0.3c0-0.2,0-0.3,0-0.4
						c0-0.1,0-0.1,0.1-0.1c0,0,0,0.1,0.1,0.1c0,0.1,0,0.2,0,0.4c0,0.1,0,0.2,0,0.3c0,0.1-0.1,0.1-0.1,0.1l0.6,0.6l-0.1-3l0.5-1.1
						l1.9,1.3L1210,182l5.1,15.4l0.9,4.2l-1.4,4l0.5,3.4c-0.4,0.6-0.8,1.7-0.9,3.4l1.3,2c-0.6,1.2-0.6,2.5-0.2,3.7
						c0.9,1.1,2,1.9,3.5,2.4c1.8,1,4.2,0.4,7.2-1.8l0.2-2.2l-3.6-12.4l1.4-0.8c0.6-0.1,1-0.6,1.1-1.4l-3-28.7l-3.8-24.2l-0.4-13.6
						l-4.1-23.2l-2.3-13.6l9.3-18.4l-0.1,6.3l-0.6,1.9l-2.5,3.2c1-1.1,1.8-1.7,2.7-1.7l0.5-0.2c0-0.3,0-0.5,0-0.6
						c0-0.2,0-0.3,0.1-0.3c0,0,0,0.1,0.1,0.3c0,0.2,0,0.4,0,0.6c0,0.3,0,0.5,0,0.7c0,0.2,0,0.3-0.1,0.3c-0.1,0-0.1-0.1-0.1-0.3
						c0-0.2,0-0.4,0-0.7l-0.5,0.2l-0.7,3.3c-0.7,1.6-0.8,2.9-0.1,4l0.2-2.6l1.2-2.2l0.3,2l0.4-5.5c0.5-1.9,1.1-2.3,1.6-1.2l0.1,2.1
						l0.6-0.4l1.6,1.1l1.6,6.1l1.3,7.9c2.3,5.9,5.1,11.6,8.6,17.1l-1,3.9l-1.9,2.7l-1.2,2.2l0.4,2.4c0.8,0.6,1.3,0.5,1.7-0.6l0.1-2
						l1.1-0.3l1.3,2.7l-1.2,4.4l-1.2,1.9c-0.2,1.2,0.3,1.7,1.4,1.7l2-4.1l-0.5,4.3c0.3,0.3,0.6,0.3,1-0.1c0.3,0.5,0.8,0.6,1.3,0.3
						l1-2.6l1.6-2c0.4-2.6,0.5-5.2,0.3-7.7l-0.6-6.3l-0.9-2.5l-4.6-18.9l-4.6-12.4c-0.1-0.7,0.1-0.7,0.6-0.1c0.2-0.8,0.6-1.1,1.1-1
						c-0.6-1.3-0.7-2-0.4-2.2c-2.4-4.9-3.6-8.3-3.6-10.5c-0.3-7.8-4-12.6-10.8-14.4l-6.8-2.8l-16.1-3.1l-5.2,2L1185.7,57"/>
				</g>
			</g>
			<g>
				<g>
					<path class="st0" d="M1212.6,39.4c-1.1,0.2-2.3,0.8-3.5,1.9l-8.3,8.4c-0.6,0.7-1.2,1.9-1.8,3.5l-3.5,3.5l10,11.4l1.9-4.6
						l4.7-2.8c1.5-0.3,3.1-1,5-2.2l2.1-1.6l1.8-1.9c2.5-2.2,3.5-4.5,2.9-7C1221.8,41.9,1218.1,39.1,1212.6,39.4"/>
				</g>
			</g>
		</g>
	</g>
	<path class="st0" d="M1440.2,288v-90.7c-2.2-0.1-4.7-0.1-7.3-0.2c-46.1-1.1-91,0-91,0l-98.3-0.5l-91,2.4H1024l-102.1,7.7
		l-111.5,7.5c0,0-38.8,1.1-99.5,0c-60.7-1.1-33.6,1.1-116.9-3.2c-83.3-4.3,6.7,0-111.1-5.3c-117.8-5.4-185.8-9-185.8-9l-55.8-5.9
		h-79.7H81.8l-82.1,3.2V288H1440.2z"/>
	<g>
		<g>
			<g>
				<g>
					<path class="st0" d="M157.2,12.9l-25,3.3l-31,6.5l-6.6,4l-2.1,1.8L87.4,32l-2.3,4.1L81.5,38v5l-3.9,3.1L73.8,49l-4.1,4.9
						L61.1,58l-7.8,2.9l-5.1,7.8l5.1,1.1L70,70.2l0.5,3.6l-0.8,8.4l-1.9,3.4l0.6,2.2l-1.4,9.1l-0.8,1.9h0.7l-0.2,6.5l1.7-9.5
						l1.3,3.5l-0.2-5.1l2.9-3.4l-1.5-5.3l3.5,1.1l0.7-3l2.2-2l-1.6-1.4l-2,0.2C73.4,80.9,73.2,81,73,81c-0.2,0-0.3-0.1-0.5-0.5
						c-0.1-0.3-0.2-0.7-0.2-1.1c0-0.5,0.2-0.5,0.6,0.1c-0.1-1.2-0.1-1.8,0.1-1.8c0.2,0,0.4,0.1,0.5,0.5c0.1,0.3,0.2,0.7,0.2,1.2
						c0,0.5-0.1,0.8-0.2,1.1l2-0.2c-0.4-1.4-0.2-2.9,0.3-4.8l4.6-2.3c1.3,0,2.3,0.8,3.1,2.2l0.3-2.7L82.7,70l0.7,1.4l1.4,0.7
						l-0.2-1.5l10.2-3.3L97,66l2.6,0.9l1.4,2.4l1.9,6.3l0.4-1.9c0.4-0.9,1.1-1,2-0.5l0.1,2.4l1.3,0.4l0.7,1l2.3,0.8l0.7,6.3l0.7-0.3
						c0-0.2,0.1-0.1,0.4,0.1c0-0.5,0-0.7,0-0.7c0.1,0,0.2,0,0.3,0.2c0.1,0.1,0.1,0.3,0.1,0.5c0,0.2,0,0.3-0.1,0.5
						c0,0.1-0.1,0.2-0.3,0.2c-0.1,0-0.2-0.1-0.3-0.2c0-0.1-0.1-0.3-0.1-0.5l-0.7,0.3l0.6,1.6l2.2-1.5l2.7,2.6l2,5.3l3.4,5.4l1.5,0.5
						c0,1.7,0.7,3.4,2.3,5.3c-1.2-2.5-1.4-3.6-0.6-3.5l-0.1,0.2l0.9-1.3c-0.3,2.1-0.1,3.4,0.5,3.7v-1.6l1.7-2.3l1.7,16.5l-3.8,17.3
						l-4.8,6.3l-0.7,2.9h0.6l-0.5,1.2l0.2,1.4l-1.4,0.7l-1,0.8l2.7,0.5c-0.3,1.9-1.3,3.3-3,4.1l-0.7-0.4l-0.2,1.7l2.3-1.6
						c-5.5,7.3-9.6,14.6-12.3,21.9l-0.5,3.1l-7.2,13.5l-0.8,4.9l-3.3,1.8l2,1.9l-1.1,2.1l0.3,1.8l-3.4,4.5l-0.1,1.8l-2.1,2.7
						l-1.8,4.5l0.2,1.2l-1.4,4.3l2.1,3.6l3.3,1.6c3.8,1.5,7.5,2.1,11,1.9l2.7-1.3l0.8-2.1l-0.4-2l1.8-2.7l-0.5-3.6l0.5-3l1.9-2.4
						c0.2-1.2,0.1-2.5-0.4-4.1l0.8-0.8c0.8-1.2,2.2-1.2,4.1-0.1l0.4-3.2l-0.9-4l3.2-3.9l7.1-11l13.7-23.3l3.9-4.3l4.5-6.7l0-3.9
						l0.4-0.7l-0.8-1.1l0.8-4l5.3-13.8l0.6-8l6.3-10.3l0.7,8.3c0.2,3.6,1,6.7,2.3,9.4l2.9,2.5l-0.9,7.5l1.3,1.1l3.4,9.5l-0.6,3.3
						c0.4,2.1,1.4,3.6,2.9,4.4l-0.7,5.2l3.2,11l-0.9,5l2,9.5l0.9,2.2l-0.7,0.2l0.7,1.4l0.9,0.3l1,3.3l-0.7-0.5l1.3,2.9l-0.6,2.2
						l0.9-1c0.5,1.2,0.2,2.4-0.8,3.7l2.1-2.1l-0.6,5.2c-0.6,1.5-0.7,3-0.3,4.5l6.2,2.5l1.4,3.1l5.4,3.4l6.6,0.4
						c2.6-0.5,4.4-1,5.4-1.6l0.7-2.4l-1.5-2l-0.8-3.1l-3-3l-3.9-5.1l-2.4-5l0.3-1.5l-0.7-2.7l-1-10.8l0.7-1.7l0.3-4.9l-2-1.5
						l1.1-2.1l-0.9-10.5l0.1-4.9l-1.1-2.3l-2.1-10.7l-0.7-5.9l0.1-5.3l-0.6-10.2l0.8-10.4l0.9-1.8l0.1-1l1.6,1.4l0.7,0.9l-1.3-5.1
						L193,87l0.7-2.5l-3.1-3.8l-0.2-3.3l-2.6-1.5l-0.9,0.8l-0.2-2.1l-2.7-1.5l-2.5-9.2L175.1,53l-3.4-10l-3-26.9L157.2,12.9"/>
				</g>
			</g>
			<g>
				<g>
					<path class="st0" d="M167,15.1c-0.3,0-0.5-0.2-0.7-0.6c0,0-0.1,0.1-0.2,0.2c0-0.1,0-0.2-0.1-0.3l0.2,1.8l-1.8-3.3l-0.3,2.7
						l0.6-0.4c0-0.1,0-0.2,0-0.4s0-0.2,0-0.4c0.1-0.1,0.1-0.1,0.2-0.1c0,0,0.1,0,0.1,0.1c0,0,0,0.1-0.1,0.1c0.1,0.1,0.2,0.1,0.2,0.2
						c0,0.1,0,0.3-0.1,0.4c0,0.1-0.1,0-0.2-0.5c0,0.4,0,0.5-0.1,0.5l-0.6,0.4l-10,2.7l14.4,25.1l4.1-1.3l0.9,2.4l2.7,2.8l0.6,3.6
						l4.3,4.3c-1.7-2.4-2.6-4.3-2.7-5.9c0.6,0.5,1.1,0.5,1.6,0.2c-1.8-1.9-3.4-4-5-6.4c0.7-0.5,1-1,1-1.8l3.3,5.4l-1.5-5.6l2.7-5.7
						l2.3-0.3l2.4-2l1.4-2.7l3.2,3.4l3.2,1.5l2.7,0.1l0.9,1.7l-0.2,1.4l1.6,1.8l1.4,0.8l1.1,1.2l2.5,2.4l1.9,1.4l1.7-0.6l-0.4-1.4
						l2.7-1.5l2.5,1.1l1.2,1.6l-0.2,4.2l-1.1,3.5l0,3.5c1,1.5,1.8,1.4,2.6-0.4l3.3-4.4l4.3,2.7c-0.7,0.3-0.8,0.9-0.4,1.8l0.7,0.7
						l1.6-0.4l1.4,1.8c-0.5,1.2-0.4,1.9,0.6,2.3c0.2,1.8,1,2.9,2.5,3.5c1.4,0.3,2.5,0.1,3.2-0.5l-1.2-4.7l0.2-4.8l-3-8.9
						c-0.9-3-2.2-5.4-4.1-7.1l-2.4-2.4l-2-1.8l0.3-1.3l-0.5-2.1l-4-5.4l-6.1-3.2l0.6-1.7l-11.1-4.3l-8.2-1.8l-4.1,0.7l-4.1,1.5
						l-4.9,0.3l-1.6,1.2l-7.9-0.1c0.2-1.2,0.6-2.1,0.9-2.9v-0.2l0,0.2L167,15.1"/>
				</g>
			</g>
			<g>
				<g>
					<path class="st0" d="M144.7,25.1l-0.6-1.2c0.1-4.2-1.9-9.2-6-15.1c-0.9-3.7-4.3-6.3-10.3-7.7c-9.8,1.5-15.7,4.1-17.7,7.9
						c-0.5,2-0.6,3.9-0.3,5.7l-0.8,5.8l0.9,1.4l-0.9,3.2H144.7"/>
				</g>
				<g>
					<path class="st0" d="M127.6,0.3c0,0.5,0.2,0.9,0.5,1.3L126.5,0l0.9,1.1c0,0.7,0.1,1.3,0.3,1.9h1.4l-1-0.2
						c0.5-0.8,1.2-1.5,2-1.9l-1.8,0.6C128,1.2,127.7,0.9,127.6,0.3"/>
					<path class="st0" d="M124.5,2.7l2.3-0.7c0.4-0.8-1.6-0.9-6.1-0.5c-0.8,0.4-1.5,0.6-2.3,0.5c-0.7,0.5-1.3,0.8-2,0.8l-1.5,0.7
						l-3.1,0.2l3.7,0.3l-2.5,1.4c1.2-0.6,2.2-0.9,2.9-0.8C119.8,2.7,122.7,2.1,124.5,2.7"/>
				</g>
			</g>
			<g>
				<g>
					<path class="st0" d="M33.7,82c-0.2,1.9,0.7,2.2,3,0.8l-3,2.8l-0.4,1.1c0.7,1,1.6,1.2,2.8,0.9c2.6-1.7,5-3.9,7.6-6.3l-7,8.9
						c0.8,2.3,1.9,3.2,3.3,2.7l7.7-9.4l-4.2,11.4c0,0.9,0.5,1.5,1.5,1.9c1.3-0.1,2.3-0.9,3.2-2.2l3.1-7.5l1.4-2.4l3.5-1.9l2.4,4.8
						L59,90l0.7,0.9c2.6,1.5,3.7,1,3.5-1.3l-1.1-4.4c0-0.4-0.3-0.9-0.8-1.5c0.4-1.1,0.6-2.4,0.4-3.7c0.2-1.1,0.2-2.3,0.2-3.4
						c0.9-2.4,1.8-4.8,2.8-6.9l-8.2-5.8l-7,2.8c-1.9,1.6-3.5,3.9-4.8,7l-0.4,1.7l-8.9,5L33.7,82"/>
				</g>
			</g>
		</g>
	</g>
</g>
</svg>
